<svg xmlns="http://www.w3.org/2000/svg" width="160" height="160" viewBox="0 0 160 160">
  <!-- 猫咪格子胸针 -->
  <!-- 胸针底座格子纹 -->
  <rect x="30" y="40" width="100" height="80" fill="#ffe2ec" stroke="#3d2f3b" stroke-width="4"/>
  <!-- 格纹 -->
  <line x1="30" y1="60" x2="130" y2="60" stroke="#ff9fbd" stroke-width="2"/>
  <line x1="30" y1="80" x2="130" y2="80" stroke="#ff9fbd" stroke-width="2"/>
  <line x1="30" y1="100" x2="130" y2="100" stroke="#ff9fbd" stroke-width="2"/>
  <line x1="50" y1="40" x2="50" y2="120" stroke="#ff9fbd" stroke-width="2"/>
  <line x1="70" y1="40" x2="70" y2="120" stroke="#ff9fbd" stroke-width="2"/>
  <line x1="90" y1="40" x2="90" y2="120" stroke="#ff9fbd" stroke-width="2"/>
  <line x1="110" y1="40" x2="110" y2="120" stroke="#ff9fbd" stroke-width="2"/>
  <!-- 坐姿小猫像素图案 -->
  <rect x="65" y="55" width="30" height="25" fill="#3d2f3b"/>
  <rect x="60" y="50" width="8" height="10" fill="#3d2f3b"/>
  <rect x="92" y="50" width="8" height="10" fill="#3d2f3b"/>
  <rect x="70" y="60" width="5" height="5" fill="#ffd765"/>
  <rect x="85" y="60" width="5" height="5" fill="#ffd765"/>
  <rect x="75" y="70" width="10" height="5" fill="#ff9fbd"/>
  <rect x="60" y="80" width="10" height="8" fill="#3d2f3b"/>
  <rect x="90" y="80" width="10" height="8" fill="#3d2f3b"/>
  <rect x="65" y="88" width="30" height="5" fill="#3d2f3b"/>
</svg>