<svg xmlns="http://www.w3.org/2000/svg" width="160" height="80" viewBox="0 0 160 80" role="img" aria-label="pink pixel corner sticker"><path d="M10 12h116v48H10z" fill="#ff8fb8" stroke="#3d2f3b" stroke-width="4"/><path d="M126 12h24v48h-24z" fill="#ffd765" stroke="#3d2f3b" stroke-width="4"/><path d="M126 12h24v24h-24z" fill="#7be0c3"/><path d="M26 26h48v8H26zM26 42h32v8H26z" fill="#fffaf0"/><path d="M82 24h10v10H82zM96 38h8v8H96zM112 28h6v6h-6z" fill="#ffd765"/><path d="M18 60h116v8H18z" fill="#3d2f3b" opacity=".18"/><path d="M142 8h8v8h-8zM150 16h8v8h-8zM136 24h6v6h-6z" fill="#ff6fa8"/></svg>
