<svg xmlns="http://www.w3.org/2000/svg" width="128" height="128" viewBox="0 0 128 128">
  <rect width="128" height="128" fill="#f8f6ff"/>
  <rect x="16" y="24" width="96" height="88" fill="#d9f1ea"/>
  <rect x="16" y="24" width="96" height="16" fill="#8fd3c1"/>
  <rect x="24" y="40" width="8" height="72" fill="#56706a"/>
  <rect x="96" y="40" width="8" height="72" fill="#56706a"/>
  <rect x="32" y="48" width="64" height="56" fill="#fff8fb"/>
  <rect x="40" y="72" width="48" height="24" fill="#ffc7d9"/>
  <rect x="56" y="56" width="16" height="16" fill="#ffdfe9"/>
  <rect x="48" y="64" width="8" height="8" fill="#ff8cb0"/>
  <rect x="72" y="64" width="8" height="8" fill="#ff8cb0"/>
  <rect x="56" y="48" width="8" height="8" fill="#ff8cb0"/>
  <rect x="64" y="48" width="8" height="8" fill="#ff8cb0"/>
  <rect x="52" y="80" width="24" height="8" fill="#fff2a8"/>
  <rect x="60" y="72" width="8" height="24" fill="#fff2a8"/>
  <rect x="40" y="56" width="8" height="8" fill="#fff2a8"/>
  <rect x="80" y="56" width="8" height="8" fill="#fff2a8"/>
  <rect x="48" y="16" width="32" height="8" fill="#fff2a8"/>
  <rect x="56" y="8" width="16" height="8" fill="#fff2a8"/>
  <rect x="44" y="104" width="40" height="8" fill="#56706a"/>
</svg>
