<svg xmlns="http://www.w3.org/2000/svg" width="128" height="128" viewBox="0 0 128 128">
  <rect width="128" height="128" fill="#fff4ef"/>
  <rect x="16" y="24" width="96" height="88" fill="#f9d9d6"/>
  <rect x="16" y="24" width="96" height="16" fill="#f48fb1"/>
  <rect x="24" y="40" width="8" height="72" fill="#8c5a63"/>
  <rect x="96" y="40" width="8" height="72" fill="#8c5a63"/>
  <rect x="32" y="48" width="64" height="56" fill="#fff7f2"/>
  <rect x="40" y="64" width="48" height="32" fill="#ffb6c8"/>
  <rect x="48" y="56" width="32" height="8" fill="#ffb6c8"/>
  <rect x="48" y="48" width="8" height="8" fill="#8c5a63"/>
  <rect x="72" y="48" width="8" height="8" fill="#8c5a63"/>
  <rect x="40" y="64" width="8" height="24" fill="#8c5a63"/>
  <rect x="80" y="64" width="8" height="24" fill="#8c5a63"/>
  <rect x="48" y="88" width="32" height="8" fill="#8c5a63"/>
  <rect x="48" y="72" width="32" height="16" fill="#ff9ebb"/>
  <rect x="48" y="72" width="8" height="8" fill="#fffaf5"/>
  <rect x="56" y="64" width="16" height="8" fill="#fffaf5"/>
  <rect x="72" y="72" width="8" height="8" fill="#fffaf5"/>
  <rect x="44" y="16" width="40" height="8" fill="#fffaf5"/>
  <rect x="52" y="8" width="24" height="8" fill="#fffaf5"/>
  <rect x="48" y="24" width="8" height="8" fill="#8c5a63"/>
  <rect x="72" y="24" width="8" height="8" fill="#8c5a63"/>
  <rect x="32" y="104" width="64" height="8" fill="#8c5a63"/>
</svg>
